<mxfile host="app.diagrams.net" modified="2022-04-28T07:54:42.248Z" agent="5.0 (Windows NT 10.0; Win64; x64) AppleWebKit/537.36 (KHTML, like Gecko) Chrome/100.0.4896.127 Safari/537.36" etag="xpe-tpGCzmJ8uEiM-P76" version="17.4.5" type="github" pages="2">
  <diagram id="AUjfPKk9v4_CdtnG9sfX" name="UAT">
    <mxGraphModel dx="1038" dy="513" grid="1" gridSize="10" guides="1" tooltips="1" connect="1" arrows="1" fold="1" page="1" pageScale="1" pageWidth="4681" pageHeight="3300" math="0" shadow="0">
      <root>
        <mxCell id="0" />
        <mxCell id="1" parent="0" />
        <mxCell id="4voHU0MuQgDVF8V4lzb6-1" value="" style="rounded=0;whiteSpace=wrap;html=1;fillColor=#dae8fc;strokeColor=#6c8ebf;" vertex="1" parent="1">
          <mxGeometry x="150" y="200" width="510" height="400" as="geometry" />
        </mxCell>
        <mxCell id="4voHU0MuQgDVF8V4lzb6-3" value="UAT-server&lt;br&gt;" style="text;html=1;strokeColor=none;fillColor=none;align=center;verticalAlign=middle;whiteSpace=wrap;rounded=0;" vertex="1" parent="1">
          <mxGeometry x="160" y="210" width="60" height="30" as="geometry" />
        </mxCell>
        <mxCell id="4voHU0MuQgDVF8V4lzb6-6" value="" style="rounded=0;whiteSpace=wrap;html=1;fillColor=#fff2cc;strokeColor=#d6b656;" vertex="1" parent="1">
          <mxGeometry x="250" y="220" width="280" height="110" as="geometry" />
        </mxCell>
        <mxCell id="4voHU0MuQgDVF8V4lzb6-7" value="inst_name: uefsmdb" style="text;html=1;strokeColor=none;fillColor=none;align=center;verticalAlign=middle;whiteSpace=wrap;rounded=0;" vertex="1" parent="1">
          <mxGeometry x="260" y="230" width="100" height="40" as="geometry" />
        </mxCell>
        <mxCell id="4voHU0MuQgDVF8V4lzb6-8" value="" style="rounded=0;whiteSpace=wrap;html=1;fillColor=#fff2cc;strokeColor=#d6b656;" vertex="1" parent="1">
          <mxGeometry x="250" y="380" width="280" height="200" as="geometry" />
        </mxCell>
        <mxCell id="4voHU0MuQgDVF8V4lzb6-9" value="inst_name:&lt;br&gt;uefstdb" style="text;html=1;strokeColor=none;fillColor=none;align=center;verticalAlign=middle;whiteSpace=wrap;rounded=0;" vertex="1" parent="1">
          <mxGeometry x="240" y="440" width="90" height="40" as="geometry" />
        </mxCell>
        <mxCell id="4voHU0MuQgDVF8V4lzb6-10" value="MEH-DEV" style="shape=cylinder3;whiteSpace=wrap;html=1;boundedLbl=1;backgroundOutline=1;size=15;" vertex="1" parent="1">
          <mxGeometry x="350" y="230" width="50" height="70" as="geometry" />
        </mxCell>
        <mxCell id="4voHU0MuQgDVF8V4lzb6-12" value="MEH-UAT" style="shape=cylinder3;whiteSpace=wrap;html=1;boundedLbl=1;backgroundOutline=1;size=15;" vertex="1" parent="1">
          <mxGeometry x="430" y="230" width="50" height="70" as="geometry" />
        </mxCell>
        <mxCell id="4voHU0MuQgDVF8V4lzb6-13" value="TDR-DEV" style="shape=cylinder3;whiteSpace=wrap;html=1;boundedLbl=1;backgroundOutline=1;size=15;" vertex="1" parent="1">
          <mxGeometry x="350" y="390" width="50" height="70" as="geometry" />
        </mxCell>
        <mxCell id="4voHU0MuQgDVF8V4lzb6-14" value="TDR-UAT" style="shape=cylinder3;whiteSpace=wrap;html=1;boundedLbl=1;backgroundOutline=1;size=15;" vertex="1" parent="1">
          <mxGeometry x="420" y="390" width="50" height="70" as="geometry" />
        </mxCell>
        <mxCell id="4voHU0MuQgDVF8V4lzb6-15" value="SOR-DEV" style="shape=cylinder3;whiteSpace=wrap;html=1;boundedLbl=1;backgroundOutline=1;size=15;" vertex="1" parent="1">
          <mxGeometry x="350" y="480" width="50" height="70" as="geometry" />
        </mxCell>
        <mxCell id="4voHU0MuQgDVF8V4lzb6-16" value="SOR-UAT" style="shape=cylinder3;whiteSpace=wrap;html=1;boundedLbl=1;backgroundOutline=1;size=15;" vertex="1" parent="1">
          <mxGeometry x="420" y="480" width="50" height="70" as="geometry" />
        </mxCell>
        <mxCell id="4voHU0MuQgDVF8V4lzb6-17" value="&lt;h1&gt;&lt;span&gt;Oracle EFS&lt;/span&gt;&lt;br&gt;&lt;/h1&gt;&lt;div&gt;- share instance between dev,uat&lt;/div&gt;&lt;div&gt;- separate instance by module&lt;/div&gt;" style="text;html=1;strokeColor=none;fillColor=none;spacing=5;spacingTop=-20;whiteSpace=wrap;overflow=hidden;rounded=0;" vertex="1" parent="1">
          <mxGeometry x="240" y="60" width="190" height="120" as="geometry" />
        </mxCell>
      </root>
    </mxGraphModel>
  </diagram>
  <diagram name="PROD" id="uxJwrox1AbqvzbpSVt9a">
    <mxGraphModel dx="1038" dy="513" grid="1" gridSize="10" guides="1" tooltips="1" connect="1" arrows="1" fold="1" page="1" pageScale="1" pageWidth="4681" pageHeight="3300" math="0" shadow="0">
      <root>
        <mxCell id="M7HeGNe_jnfWLCAm0QAK-0" />
        <mxCell id="M7HeGNe_jnfWLCAm0QAK-1" parent="M7HeGNe_jnfWLCAm0QAK-0" />
        <mxCell id="M7HeGNe_jnfWLCAm0QAK-2" value="" style="rounded=0;whiteSpace=wrap;html=1;fillColor=#dae8fc;strokeColor=#6c8ebf;" vertex="1" parent="M7HeGNe_jnfWLCAm0QAK-1">
          <mxGeometry x="150" y="200" width="360" height="190" as="geometry" />
        </mxCell>
        <mxCell id="M7HeGNe_jnfWLCAm0QAK-3" value="PROD1-server" style="text;html=1;strokeColor=none;fillColor=none;align=center;verticalAlign=middle;whiteSpace=wrap;rounded=0;" vertex="1" parent="M7HeGNe_jnfWLCAm0QAK-1">
          <mxGeometry x="160" y="210" width="60" height="30" as="geometry" />
        </mxCell>
        <mxCell id="M7HeGNe_jnfWLCAm0QAK-4" value="" style="rounded=0;whiteSpace=wrap;html=1;fillColor=#fff2cc;strokeColor=#d6b656;" vertex="1" parent="M7HeGNe_jnfWLCAm0QAK-1">
          <mxGeometry x="250" y="220" width="230" height="100" as="geometry" />
        </mxCell>
        <mxCell id="M7HeGNe_jnfWLCAm0QAK-5" value="inst_name: pefsmdb" style="text;html=1;strokeColor=none;fillColor=none;align=center;verticalAlign=middle;whiteSpace=wrap;rounded=0;" vertex="1" parent="M7HeGNe_jnfWLCAm0QAK-1">
          <mxGeometry x="260" y="230" width="100" height="40" as="geometry" />
        </mxCell>
        <mxCell id="M7HeGNe_jnfWLCAm0QAK-8" value="MEH-DEV" style="shape=cylinder3;whiteSpace=wrap;html=1;boundedLbl=1;backgroundOutline=1;size=15;" vertex="1" parent="M7HeGNe_jnfWLCAm0QAK-1">
          <mxGeometry x="390" y="230" width="50" height="70" as="geometry" />
        </mxCell>
        <mxCell id="M7HeGNe_jnfWLCAm0QAK-14" value="&lt;h1&gt;&lt;span&gt;Oracle EFS&lt;/span&gt;&lt;br&gt;&lt;/h1&gt;&lt;div&gt;&lt;br&gt;&lt;/div&gt;&lt;div&gt;- separate instance by module&lt;/div&gt;" style="text;html=1;strokeColor=none;fillColor=none;spacing=5;spacingTop=-20;whiteSpace=wrap;overflow=hidden;rounded=0;" vertex="1" parent="M7HeGNe_jnfWLCAm0QAK-1">
          <mxGeometry x="240" y="60" width="310" height="120" as="geometry" />
        </mxCell>
        <mxCell id="Lc_9N0pBl8oZAXxXscT_-0" value="" style="rounded=0;whiteSpace=wrap;html=1;fillColor=#dae8fc;strokeColor=#6c8ebf;" vertex="1" parent="M7HeGNe_jnfWLCAm0QAK-1">
          <mxGeometry x="560" y="200" width="440" height="190" as="geometry" />
        </mxCell>
        <mxCell id="Lc_9N0pBl8oZAXxXscT_-2" value="PROD2-server" style="text;html=1;strokeColor=none;fillColor=none;align=center;verticalAlign=middle;whiteSpace=wrap;rounded=0;" vertex="1" parent="M7HeGNe_jnfWLCAm0QAK-1">
          <mxGeometry x="590" y="210" width="60" height="30" as="geometry" />
        </mxCell>
        <mxCell id="Lc_9N0pBl8oZAXxXscT_-3" value="" style="rounded=0;whiteSpace=wrap;html=1;fillColor=#fff2cc;strokeColor=#d6b656;" vertex="1" parent="M7HeGNe_jnfWLCAm0QAK-1">
          <mxGeometry x="675" y="220" width="280" height="110" as="geometry" />
        </mxCell>
        <mxCell id="Lc_9N0pBl8oZAXxXscT_-4" value="TDR" style="shape=cylinder3;whiteSpace=wrap;html=1;boundedLbl=1;backgroundOutline=1;size=15;" vertex="1" parent="M7HeGNe_jnfWLCAm0QAK-1">
          <mxGeometry x="800" y="230" width="50" height="70" as="geometry" />
        </mxCell>
        <mxCell id="Lc_9N0pBl8oZAXxXscT_-5" value="inst_name:&lt;br&gt;pefstdb" style="text;html=1;strokeColor=none;fillColor=none;align=center;verticalAlign=middle;whiteSpace=wrap;rounded=0;" vertex="1" parent="M7HeGNe_jnfWLCAm0QAK-1">
          <mxGeometry x="700" y="230" width="90" height="40" as="geometry" />
        </mxCell>
        <mxCell id="Lc_9N0pBl8oZAXxXscT_-6" value="SOR" style="shape=cylinder3;whiteSpace=wrap;html=1;boundedLbl=1;backgroundOutline=1;size=15;" vertex="1" parent="M7HeGNe_jnfWLCAm0QAK-1">
          <mxGeometry x="870" y="230" width="50" height="70" as="geometry" />
        </mxCell>
      </root>
    </mxGraphModel>
  </diagram>
</mxfile>
